#tb 0: 1/25
0,          0,          0,        1,   195264, 5869dee2126d98ecc1fab1e69720906a
0,          1,          1,        1,   195272, 1bd08dcde1061b0d9273bdc6dd901382
0,          2,          2,        1,   195892, 2b3fc3632bcd1cc44f777fb97a56f79b
0,          3,          3,        1,   195320, 792870fc50a4145ad561b1004a8b6451
0,          4,          4,        1,   194640, c3d4031c46d6dc64e632e2d38b48fc96
0,          5,          5,        1,   195072, 27e4b09e7f8446a8dd8dd7dcbc578e2b
0,          6,          6,        1,   194488, e44441beb8d3e358112e2776a0116ea9
0,          7,          7,        1,   195228, 0519afd694512aea2c839fe0456e518c
0,          8,          8,        1,   194360, 7296944c86296fb256188975db6e5620
0,          9,          9,        1,   195252, 40b53999a36ce413256c7a81c3aa0c44
0,         10,         10,        1,   195000, 925fe520c460f94ae7a05cf0e6cf8dd8
0,         11,         11,        1,   195532, af417aac106af9b4e8c04cf1a84d3bd8
0,         12,         12,        1,   193836, 0eadf04f475a93ebef3979d32c13ee92
0,         13,         13,        1,   194856, 5814ff44b233d68e4c991703c0fa6f44
0,         14,         14,        1,   195760, e9a66bbeadeab4ed3f34296346eafc27
0,         15,         15,        1,   195388, 17d33cd676c8b464d1b97ce0f0234716
0,         16,         16,        1,   195248, 1054b945cd6e11e70d8b348e540e4dd5
0,         17,         17,        1,   194792, f0a6ceee9014f6cf8a999f344897ad3e
0,         18,         18,        1,   194044, 4fbf2b9fd8b7e8233f65b5bf61e326c0
0,         19,         19,        1,   194324, eb90b72edafab7bbe5e9ff561313927c
0,         20,         20,        1,   193872, 6ebc973b9f66e1ebdb3029f1aadd9a24
0,         21,         21,        1,   193836, cde713fba6bede0361779c45f7a6d80b
0,         22,         22,        1,   194872, 64225b7d92c8371ed0335d7693902f60
0,         23,         23,        1,   195240, b11e0b10b4e713caffec706d952edb7b
0,         24,         24,        1,   195516, 932244aee01b068f1bfb5132f092675b
0,         25,         25,        1,   195508, 2745faafa2ec34dcf2cec2f5f791f49b
0,         26,         26,        1,   195292, 6ff67783eabad9c72b146d510ffa0b7e
0,         27,         27,        1,   194468, cc5aa248fe507ac3fbb839b9388856bc
0,         28,         28,        1,   192516, 13063bb195380953743ab24a73ff6ddd
0,         29,         29,        1,   192464, a391b0d795b2f565cc3e351975fb528d
0,         30,         30,        1,   193696, 4239c695d1b9eaa44c2d037a9c39da20
0,         31,         31,        1,   194500, 5857b4c4cc86a9a0f38d833c236e396c
0,         32,         32,        1,   194364, ad0eeec7622c76bd996deac7e99390e5
0,         33,         33,        1,   195916, b98da9283eef85f6dffe308774161441
0,         34,         34,        1,   195560, 32f924fc40bb777c951481b623a8f46b
0,         35,         35,        1,   195288, 96a7bb386420902fbb98b8267d4496ca
0,         36,         36,        1,   194272, 98b88d6092708ffff416417d8f628477
0,         37,         37,        1,   194464, 3c8295490b77415c2e4ebb7ce9b8cc53
0,         38,         38,        1,   192712, 17798a13ba5f82939d98dfd619a68e18
0,         39,         39,        1,   193036, b92ab54b363c1bd29042feeb3b9f5631
0,         40,         40,        1,   193164, a971b68bb49148afdf510be5f5793933
0,         41,         41,        1,   193528, 6fbf07d240e0073e57d295bdd0d32465
0,         42,         42,        1,   194124, 4b1ddea464b8e40da48418e77b4fdf7a
0,         43,         43,        1,   194236, d46914a9e2bdda30bf84b3282924bb3d
0,         44,         44,        1,   193748, 3d4587081c6d73366d85e5df42c87810
0,         45,         45,        1,   191752, 996274b3852ac6af30db8f9e242895e0
0,         46,         46,        1,   191132, 5a1e47e4d1cc9e18e94041b4357a5de4
0,         47,         47,        1,   191708, e3048c5ba2b9a494791cad3cbf843780
0,         48,         48,        1,   191588, dbc63170a9b7be348497162c42a1b9f1
0,         49,         49,        1,   191448, db923a15f424e69bbf8c8af2a2f7e157
